<?xml version="1.0" encoding="UTF-8" standalone="no"?>
<svg
   xmlns:dc="http://purl.org/dc/elements/1.1/"
   xmlns:cc="http://creativecommons.org/ns#"
   xmlns:rdf="http://www.w3.org/1999/02/22-rdf-syntax-ns#"
   xmlns:svg="http://www.w3.org/2000/svg"
   xmlns="http://www.w3.org/2000/svg"
   width="134.75783mm"
   height="129.67998mm"
   viewBox="0 0 134.75783 129.67998"
   version="1.1"
   id="svg8">
  <defs
     id="defs2" />
  <metadata
     id="metadata5">
    <rdf:RDF>
      <cc:Work
         rdf:about="">
        <dc:format>image/svg+xml</dc:format>
        <dc:type
           rdf:resource="http://purl.org/dc/dcmitype/StillImage" />
        <dc:title></dc:title>
      </cc:Work>
    </rdf:RDF>
  </metadata>
  <g
     id="layer1"
     transform="translate(-53.998075,-67.922266)">
    <path
       style="fill:#4c7337;fill-opacity:1;stroke-width:0.264583"
       d="m 56.516265,197.26402 c -1.73919,-0.46742 -2.33563,-1.12701 -2.49216,-2.75608 -0.25371,-2.64037 1.30699,-3.88817 6.45691,-5.16239 7.45828,-1.84537 13.03013,-5.38967 17.11015,-10.8839 2.84374,-3.82942 7.50029,-14.21508 13.03769,-29.0784 l 2.35613,-6.32423 1.7206,-0.77802 c 2.59589,-1.17381 13.684695,-5.76848 20.157405,-8.35227 3.15523,-1.25951 5.69412,-2.33269 5.64196,-2.38485 -0.0522,-0.0522 -3.22903,0.8002 -7.05971,1.89413 -10.92059,3.11861 -18.067835,4.90472 -18.379505,4.59305 -0.24774,-0.24774 3.16371,-8.31815 5.851605,-13.84305 l 2.71972,-5.59031 1.28936,-0.42403 c 1.30466,-0.42907 8.90824,-2.29084 13.67685,-3.34883 1.42885,-0.31702 2.55411,-0.6202 2.50057,-0.67374 -0.0535,-0.0535 -3.47114,0.14042 -7.59467,0.43102 -4.12353,0.29061 -7.53938,0.48632 -7.59079,0.43492 -0.13821,-0.13822 3.28549,-5.1238 5.35048,-7.79135 4.89623,-6.32492 11.36947,-11.786687 17.83284,-15.046367 1.30998,-0.660665 2.38178,-1.248012 2.38178,-1.305216 0,-0.240037 -5.58622,1.859913 -7.47934,2.811606 -4.38042,2.202087 -9.89983,6.057255 -13.32568,9.307667 -0.74223,0.70422 -1.15561,0.93717 -1.28669,0.72509 -0.10621,-0.17186 -0.63613,-2.53448 -1.1776,-5.250271 l -0.98449,-4.937799 -0.1495,6.53734 -0.14951,6.53734 -1.60379,1.79703 c -3.44677,3.86209 -7.564485,9.62935 -10.491355,14.69418 -0.56722,0.98155 -1.11137,1.69593 -1.20923,1.5875 -0.0979,-0.10843 -2.16643,-4.09644 -4.59683,-8.86224 -2.43041,-4.76581 -4.45816,-8.66511 -4.50612,-8.66511 -0.10092,0 0.10629,0.67978 3.01265,9.8829 1.18808,3.76211 2.51434,8.10162 2.94726,9.64336 l 0.78711,2.80317 -1.88151,3.85039 c -2.30764,4.72242 -5.03427,11.06186 -7.91502,18.40247 -1.19927,3.05594 -2.25719,5.64212 -2.35092,5.74706 -0.19908,0.22288 -3.18556,-3.41447 -4.96221,-6.04367 -7.07361,-10.46794 -8.61292,-25.97476 -3.95902,-39.88272 4.65963,-13.925101 15.41256,-25.465048 30.722425,-32.971036 11.88706,-5.827883 24.0657,-9.006036 39.6875,-10.356898 4.77386,-0.41281 16.93398,-0.412122 21.69583,0.0012 9.64602,0.837313 19.94745,2.370509 25.39507,3.77963 l 1.0534,0.27248 -0.78882,0.4112 c -0.43385,0.226159 -2.0985,1.424489 -3.69923,2.662955 -10.73016,8.301795 -16.18242,14.797568 -20.13804,23.992267 -2.07879,4.832092 -2.8143,7.272262 -5.6612,18.781902 -4.09332,16.54877 -5.14108,19.886 -8.30804,26.46185 -3.25163,6.75168 -6.89873,11.908 -11.67958,16.51279 -7.11482,6.8528 -14.98645,10.09237 -24.52424,10.09297 -7.40114,5.3e-4 -13.1628,-1.17942 -20.664215,-4.23164 -1.77827,-0.72355 -2.61532,-0.95122 -2.69116,-0.73195 -0.0605,0.17503 -0.54067,1.62794 -1.06697,3.22866 -5.00357,15.21836 -13.74036,24.30032 -26.48739,27.53387 -2.8052,0.7116 -4.59672,0.78411 -6.53076,0.26434 z"
       id="path857" />
  </g>
</svg>
