<?xml version="1.0" encoding="UTF-8" standalone="no"?>
<svg
   xmlns:dc="http://purl.org/dc/elements/1.1/"
   xmlns:cc="http://creativecommons.org/ns#"
   xmlns:rdf="http://www.w3.org/1999/02/22-rdf-syntax-ns#"
   xmlns:svg="http://www.w3.org/2000/svg"
   xmlns="http://www.w3.org/2000/svg"
   xmlns:sodipodi="http://sodipodi.sourceforge.net/DTD/sodipodi-0.dtd"
   xmlns:inkscape="http://www.inkscape.org/namespaces/inkscape"
   width="259.35999mm"
   height="129.67999mm"
   viewBox="0 0 259.35999 129.68"
   version="1.1"
   id="svg8"
   inkscape:version="1.0.1 (3bc2e813f5, 2020-09-07, custom)"
   sodipodi:docname="leaf.svg"
   inkscape:export-filename="/tmp/leaf.png"
   inkscape:export-xdpi="96"
   inkscape:export-ydpi="96">
  <defs
     id="defs2" />
  <sodipodi:namedview
     id="base"
     pagecolor="#ffffff"
     bordercolor="#666666"
     borderopacity="1.0"
     inkscape:pageopacity="0.0"
     inkscape:pageshadow="2"
     inkscape:zoom="0.5814537"
     inkscape:cx="283.18696"
     inkscape:cy="203.87504"
     inkscape:document-units="mm"
     inkscape:current-layer="layer1"
     inkscape:document-rotation="0"
     showgrid="false"
     fit-margin-top="0"
     fit-margin-left="0"
     fit-margin-right="0"
     fit-margin-bottom="0"
     inkscape:window-width="1906"
     inkscape:window-height="1024"
     inkscape:window-x="6"
     inkscape:window-y="48"
     inkscape:window-maximized="0" />
  <metadata
     id="metadata5">
    <rdf:RDF>
      <cc:Work
         rdf:about="">
        <dc:format>image/svg+xml</dc:format>
        <dc:type
           rdf:resource="http://purl.org/dc/dcmitype/StillImage" />
        <dc:title></dc:title>
      </cc:Work>
    </rdf:RDF>
  </metadata>
  <g
     inkscape:label="Ebene 1"
     inkscape:groupmode="layer"
     id="layer1"
     transform="translate(16.263138,-68.649696)">
    <path
       style="fill:#4c7337;fill-opacity:1;stroke-width:0.264583"
       d="m 48.556127,197.99146 c -1.73919,-0.46742 -2.33563,-1.12701 -2.49216,-2.75608 -0.25371,-2.64037 1.30699,-3.88817 6.45691,-5.16239 7.45828,-1.84537 13.03013,-5.38967 17.11015,-10.8839 2.84374,-3.82942 7.50029,-14.21508 13.03769,-29.0784 l 2.35613,-6.32423 1.7206,-0.77802 c 2.59589,-1.17381 13.684693,-5.76848 20.157403,-8.35227 3.15523,-1.25951 5.69412,-2.33269 5.64196,-2.38485 -0.0522,-0.0522 -3.22903,0.8002 -7.05971,1.89413 -10.920588,3.11861 -18.067833,4.90472 -18.379503,4.59305 -0.24774,-0.24774 3.16371,-8.31815 5.851605,-13.84305 l 2.71972,-5.59031 1.28936,-0.42403 c 1.30466,-0.42907 8.908238,-2.29084 13.676848,-3.34883 1.42885,-0.31702 2.55411,-0.6202 2.50057,-0.67374 -0.0535,-0.0535 -3.47114,0.14042 -7.59467,0.43102 -4.12353,0.29061 -7.539378,0.48632 -7.590788,0.43492 -0.13821,-0.13822 3.285488,-5.1238 5.350478,-7.79135 4.89623,-6.32492 11.36947,-11.786686 17.83284,-15.046366 1.30998,-0.660665 2.38178,-1.248012 2.38178,-1.305216 0,-0.240037 -5.58622,1.859913 -7.47934,2.811606 -4.38042,2.202087 -9.89983,6.057256 -13.32568,9.307666 -0.74223,0.70422 -1.15561,0.93717 -1.28669,0.72509 -0.10621,-0.17186 -0.63613,-2.53448 -1.1776,-5.25027 l -0.984488,-4.937799 -0.1495,6.537339 -0.14951,6.53734 -1.60379,1.79703 c -3.44677,3.86209 -7.564485,9.62935 -10.491355,14.69418 -0.56722,0.98155 -1.11137,1.69593 -1.20923,1.5875 -0.0979,-0.10843 -2.16643,-4.09644 -4.59683,-8.86224 -2.43041,-4.76581 -4.45816,-8.66511 -4.50612,-8.66511 -0.10092,0 0.10629,0.67978 3.01265,9.8829 1.18808,3.76211 2.51434,8.10162 2.94726,9.64336 l 0.78711,2.80317 -1.88151,3.85039 c -2.30764,4.72242 -5.03427,11.06186 -7.91502,18.40247 -1.19927,3.05594 -2.25719,5.64212 -2.35092,5.74706 -0.19908,0.22288 -3.18556,-3.41447 -4.96221,-6.04367 -7.07361,-10.46794 -8.61292,-25.97476 -3.95902,-39.88272 4.65963,-13.9251 15.41256,-25.465047 30.722425,-32.971035 11.887058,-5.827883 24.065698,-9.006036 39.687498,-10.356898 4.77386,-0.41281 16.93398,-0.412122 21.69583,0.0012 9.64602,0.837313 19.94745,2.370509 25.39507,3.77963 l 1.0534,0.27248 -0.78882,0.4112 c -0.43385,0.226159 -2.0985,1.424489 -3.69923,2.662955 -10.73016,8.301795 -16.18242,14.797568 -20.13804,23.992268 -2.07879,4.83209 -2.8143,7.27226 -5.6612,18.7819 -4.09332,16.54877 -5.14108,19.886 -8.30804,26.46185 -3.25163,6.75168 -6.89873,11.908 -11.67958,16.51279 -7.11482,6.8528 -14.98645,10.09237 -24.52424,10.09297 -7.401138,5.3e-4 -13.162798,-1.17942 -20.664213,-4.23164 -1.77827,-0.72355 -2.61532,-0.95122 -2.69116,-0.73195 -0.0605,0.17503 -0.54067,1.62794 -1.06697,3.22866 -5.00357,15.21836 -13.74036,24.30032 -26.48739,27.53387 -2.8052,0.7116 -4.59672,0.78411 -6.53076,0.26434 z"
       id="path857" />
  </g>
</svg>
